<svg xmlns="http://www.w3.org/2000/svg" width="200" height="200" viewBox="0 0 200 200" version="1.1">
	<path d="M 43 1.593 C 34.706 3.796, 27.237 7.912, 20.886 13.778 C 13.573 20.533, 9.390 27.104, 6.392 36.544 L 4 44.076 4.015 95.788 C 4.027 138.394, 4.296 148.629, 5.541 153.912 C 10.190 173.635, 24.454 188.565, 43.500 193.643 C 49.804 195.324, 148.843 195.563, 156 193.915 C 169.055 190.908, 183.922 179.163, 189.496 167.453 C 195.887 154.026, 196 152.796, 196 96.528 C 196 40.952, 195.877 39.491, 190.237 28 C 186.657 20.705, 175.097 9.114, 168 5.704 C 156.355 0.108, 154.976 -0.006, 99.540 0.066 C 58.111 0.119, 47.464 0.407, 43 1.593 M 85.191 45.025 C 81.170 46.078, 75.559 48.191, 72.720 49.720 C 65.648 53.529, 54.973 63.796, 51.555 70.075 C 49.024 74.726, 46.605 82, 47.590 82 C 47.798 82, 49.816 79.075, 52.074 75.500 C 59.834 63.214, 71.755 54.771, 86.766 50.932 C 95.763 48.631, 102.059 48.522, 111.500 50.504 C 126.229 53.597, 140.267 63.150, 147.644 75.102 C 149.646 78.346, 151.664 81, 152.128 81 C 153.150 81, 149.598 71.727, 146.896 67.341 C 144.002 62.644, 133.139 52.888, 127.284 49.728 C 115.363 43.294, 98.845 41.448, 85.191 45.025 M 44.250 101.662 C 41.238 102.878, 43.767 115.993, 49.127 126.955 C 53.476 135.847, 65.182 147.550, 74 151.819 C 84.264 156.789, 91.950 158.345, 103 157.693 C 114.199 157.031, 122.429 154.461, 130.919 148.974 C 145.037 139.849, 154.285 125.759, 156.837 109.488 C 157.987 102.151, 156.595 101.359, 142.250 101.189 L 131 101.056 131 109.528 L 131 118 128 118 L 125 118 125 111 L 125 104 117.500 104 L 110 104 110 111 L 110 118 106.500 118 L 103 118 103 109.500 L 103 101 99.500 101 L 96 101 96 109.500 L 96 118 93.250 117.966 C 90.934 117.937, 89.632 116.635, 85 109.722 C 81.975 105.206, 78.713 101.364, 77.750 101.183 C 76.194 100.890, 76 101.803, 76 109.427 L 76 118 72.500 118 L 69 118 69 109.500 L 69 101 57.250 101.079 C 50.787 101.122, 44.938 101.385, 44.250 101.662 M 87.500 102 C 87.840 102.550, 88.316 103, 88.559 103 C 88.802 103, 89 102.550, 89 102 C 89 101.450, 88.523 101, 87.941 101 C 87.359 101, 87.160 101.450, 87.500 102" stroke="none" fill="black" fill-rule="evenodd"/>
</svg>